# xmcd
#
# Track frame offsets:
#	150
#	17889
#	39505
#	54275
#	80048
#	107183
#	130204
#	153096
#	171290
#	194509
#	215242
#	235493
#	257386
#	276876
#
# Disc length: 3943 seconds
#
# Revision: 1
# Processed by: cddbd v1.5.2PL0 Copyright (c) Steve Scherf et al.
# Submitted via: audiograbber 1.83.01
#
DISCID=c70f650e
DTITLE=Rhumboogie - The Simple Things
DYEAR=2002
DGENRE=Blues
TTITLE0=Can't Stop
TTITLE1=You
TTITLE2=20 Flight Rock
TTITLE3=At Last
TTITLE4=Never Too Old
TTITLE5=Jump Children
TTITLE6=Mathilda
TTITLE7=Low Down Woman
TTITLE8=The Simple Things
TTITLE9=No No No
TTITLE10=She's Mine
TTITLE11=Caught The Katy
TTITLE12=Slick Chick
TTITLE13=One Memphis Day
EXTD=
EXTT0=P. Carlson
EXTT1=S. Frisby
EXTT2=Cochran and Fairchild
EXTT3=Warren and Gordon
EXTT4=S. Frisby
EXTT5=Bartholomew and Domino
EXTT6=Khoury and Thierry
EXTT7=James Harman
EXTT8=P. Carlson
EXTT9=S. Frisby
EXTT10=P. Carlson
EXTT11=J. Rachell - T. Mahal
EXTT12=Jimmy Rogers
EXTT13=S. Frisby
PLAYORDER=
